<svg xmlns="http://www.w3.org/2000/svg" fill="none" viewBox="0 0 145 39"><g fill="#E20613" clip-path="url(#a)"><path d="M89.268 37.36c1.91.622 3.91.933 5.922.92a19.29 19.29 0 0 0 5.949-.92 17.859 17.859 0 0 0 4.006-1.842 18.785 18.785 0 0 0 6.93-7.256l.718-1.34-6.676-3.738-.768 1.44a11.368 11.368 0 0 1-4.197 4.47 11.789 11.789 0 0 1-11.193.411l16.523-14.413 5.593-4.89-.71-1.136a18.612 18.612 0 0 0-6.802-6.26A18.352 18.352 0 0 0 98.126.572 17.084 17.084 0 0 0 95.19.335c-.506 0-.999 0-1.491.049a19.347 19.347 0 0 0-12.552 6.06 18.964 18.964 0 0 0-5.12 12.86 18.1 18.1 0 0 0 1.97 8.355 20.199 20.199 0 0 0 3.704 4.998 18.86 18.86 0 0 0 7.567 4.694m-5.421-19.823a10.734 10.734 0 0 1 3.162-6.312 11.073 11.073 0 0 1 8.167-3.286 11.265 11.265 0 0 1 6.039 1.659L84.71 24.078a11.211 11.211 0 0 1-1.016-4.761c-.005-.599.036-1.196.121-1.789M19.356.357A18.631 18.631 0 0 0 6.74 5.082c-.29.255-.583.523-.877.8a18.25 18.25 0 0 0-4.26 6.133 18.09 18.09 0 0 0-1.431 7.306c0 5.222 1.974 9.67 5.678 13.354a18.73 18.73 0 0 0 8.79 5.056c1.545.367 3.127.555 4.716.559a19.41 19.41 0 0 0 4.743-.56c.42-.093.836-.218 1.242-.343.158-.058.325-.112.492-.18a18.831 18.831 0 0 0 6.239-3.719l5.913 4.243.537.398V.334l-6.45 4.82c-3.46-3.14-8-4.856-12.694-4.797M27.51 27.39a11.084 11.084 0 0 1-6.107 3.129c-.676.115-1.36.17-2.046.165a11.437 11.437 0 0 1-4.425-.818 11.343 11.343 0 0 1-3.754-2.458 11.21 11.21 0 0 1-2.491-3.71 11.115 11.115 0 0 1-.835-4.378c-.07-2.76.921-5.442 2.773-7.506a11.024 11.024 0 0 1 4.292-3.087 11.12 11.12 0 0 1 4.44-.794 11.564 11.564 0 0 1 4.411.854c1.4.57 2.67 1.408 3.74 2.467a11.333 11.333 0 0 1 2.494 3.7 11.24 11.24 0 0 1 .865 4.366 10.837 10.837 0 0 1-.83 4.38 10.93 10.93 0 0 1-2.527 3.69Zm37.334 10.837h7.679V15.946a14.381 14.381 0 0 0-1.08-5.658 14.502 14.502 0 0 0-3.218-4.797 14.675 14.675 0 0 0-4.85-3.18 14.798 14.798 0 0 0-5.718-1.064 14.209 14.209 0 0 0-9.522 3.433L42.8.397v37.83h7.679V15.946a7.013 7.013 0 0 1 .537-2.728 7.073 7.073 0 0 1 1.557-2.312 7.156 7.156 0 0 1 2.337-1.541 7.216 7.216 0 0 1 2.756-.532 7.13 7.13 0 0 1 2.767.49c.88.344 1.68.86 2.355 1.518a6.783 6.783 0 0 1 1.583 2.335c.357.88.524 1.823.49 2.77l-.017 22.281Z"/><path d="M144.855 38.267 132.442 16.63 141.761.357h-9.075l-4.824 8.41-4.824-8.41h-9.093l9.413 16.282-12.508 21.628h9.089l7.923-13.769 7.909 13.77h9.084Z"/></g><defs><clipPath id="a"><path fill="#fff" d="M0 .5h145v38H0z"/></clipPath></defs></svg>
