<svg xmlns="http://www.w3.org/2000/svg" fill="none" viewBox="0 0 144 67"><g clip-path="url(#a)"><path fill="#FFCD00" d="M77.13 23.14a3.13 3.13 0 0 0 0 4.44 3.16 3.16 0 0 0 4.46 0L103.9 5.36a3.13 3.13 0 0 0 0-4.44 3.16 3.16 0 0 0-4.46 0L77.13 23.14ZM77.13 3.88a3.13 3.13 0 0 0 0 4.45 3.16 3.16 0 0 0 4.46 0l2.98-2.96a3.13 3.13 0 0 0 0-4.45 3.16 3.16 0 0 0-4.47 0l-2.97 2.96ZM103.16 35.72a3.13 3.13 0 0 0 0 4.45 3.17 3.17 0 0 0 4.46 0l34.96-34.8a3.13 3.13 0 0 0 0-4.45 3.16 3.16 0 0 0-4.47 0l-34.95 34.8ZM92 27.58a3.13 3.13 0 0 0 0 4.44 3.17 3.17 0 0 0 4.47 0l26.77-26.65a3.13 3.13 0 0 0 0-4.45 3.17 3.17 0 0 0-4.46 0L92 27.58ZM111.34 51.27a3.13 3.13 0 0 1 0-4.44l26.77-26.66a3.16 3.16 0 0 1 4.47 0 3.13 3.13 0 0 1 0 4.45L115.8 51.27a3.16 3.16 0 0 1-4.46 0ZM135.14 66.08a3.13 3.13 0 0 1 0-4.44l2.97-2.96a3.16 3.16 0 0 1 4.47 0 3.13 3.13 0 0 1 0 4.44l-2.98 2.96a3.17 3.17 0 0 1-4.46 0ZM115.8 66.08a3.13 3.13 0 0 1 0-4.44l22.31-22.22a3.16 3.16 0 0 1 4.47 0 3.13 3.13 0 0 1 0 4.45l-22.32 22.21a3.16 3.16 0 0 1-4.46 0ZM102.12 67c2.79 0 4.97-2.3 4.52-5.04A30.86 30.86 0 0 0 81.27 36.7c-2.75-.45-5.07 1.73-5.06 4.5v20.74A5.1 5.1 0 0 0 81.29 67h20.83Z"/><path fill="#E73C3E" fill-rule="evenodd" d="M32.98 31.03c.75-.59 1.2-1.08 1.2-1.88 0-.95-.8-1.54-1.76-1.54-.97 0-1.66.54-1.66 1.56 0 .86.58 1.49 1.1 1.99l.4.39.72-.52Zm2.47 6.93-3.72-3.87-.63.41c-.92.63-1.38 1.4-1.38 2.38 0 1.56 1.15 2.38 2.78 2.38 1.17 0 2.16-.44 2.95-1.3Zm3.26-4.28c.71 0 1.26.64 1.07 1.33a9.57 9.57 0 0 1-1.33 2.93l1.17 1.2a1.07 1.07 0 1 1-1.53 1.5l-1.11-1.14-.28.25a6.6 6.6 0 0 1-4.28 1.6c-3 0-5.1-1.53-5.1-4.4 0-2.12 1.35-3.33 2.64-4.17l.29-.18-.29-.34c-.92-1.1-1.44-1.84-1.44-3.13 0-2.01 1.5-3.48 3.83-3.48 2.3 0 4.07 1.3 4.07 3.43 0 1.67-1.14 2.64-2.86 3.85l3.27 3.39c.3-.5.52-1.07.68-1.66.15-.56.63-.98 1.2-.98ZM1.03 3.66A3.67 3.67 0 0 1 4.7 0h10.51a3.15 3.15 0 1 1 0 6.28h-6.3c-.88 0-1.59.7-1.59 1.57v3.66c0 .87.71 1.57 1.58 1.57h5.59a2.62 2.62 0 1 1 0 5.24H8.9c-.87 0-1.58.7-1.58 1.57v7.33a3.15 3.15 0 0 1-6.3 0V3.66ZM25.21 0c1.74 0 3.15 1.4 3.15 3.14v8.38c0 2.3 1.58 4.7 4.21 4.7s4.2-2.4 4.2-4.7V3.14a3.15 3.15 0 0 1 6.31 0v8.38c0 5.78-4.7 9.94-10.51 9.94-5.8 0-10.51-4.16-10.51-9.94V3.14A3.15 3.15 0 0 1 25.2 0ZM46.76 3.14A3.15 3.15 0 0 1 49.92 0h.07c1.14 0 2.19.61 2.75 1.6L61.48 17V3.14a3.15 3.15 0 0 1 6.31 0v24.08a3.15 3.15 0 0 1-3.15 3.14h-.07a3.16 3.16 0 0 1-2.75-1.6l-8.75-15.41v13.87a3.15 3.15 0 0 1-6.3 0V3.14ZM46.76 39.78a3.15 3.15 0 0 1 3.16-3.14h.07c1.14 0 2.19.61 2.75 1.6l8.74 15.41V39.78a3.15 3.15 0 0 1 6.31 0v24.08A3.15 3.15 0 0 1 64.64 67h-.07a3.16 3.16 0 0 1-2.75-1.6L53.07 50v13.87a3.15 3.15 0 0 1-6.3 0V39.78ZM25.21 45.54c1.74 0 3.16 1.4 3.16 3.14v8.37c0 2.32 1.57 4.72 4.2 4.72s4.2-2.4 4.2-4.72v-8.37a3.15 3.15 0 0 1 6.32 0v8.37c0 5.79-4.71 9.95-10.52 9.95-5.8 0-10.51-4.16-10.51-9.95v-8.37a3.15 3.15 0 0 1 3.15-3.14Z" clip-rule="evenodd"/><path fill="#E73C3E" d="M19.43 58.4c0 2.66-.95 4.76-2.84 6.3-1.88 1.53-4.5 2.3-7.87 2.3-2.46 0-4.69-.37-6.7-1.12A2.42 2.42 0 0 1 .5 63.57c0-1.95 2.02-3.23 3.88-2.61.38.12.74.23 1.08.32 1.37.37 2.39.45 3.51.45 1.35 0 2.39-.27 3.1-.8.73-.52 1.1-1.3 1.1-2.34 0-.57-.16-1.09-.48-1.53-.32-.46-.79-.9-1.41-1.31-.61-.42-1.64-.98-3.53-1.9a17.79 17.79 0 0 1-4-2.44 9.15 9.15 0 0 1-2.12-2.73 7.9 7.9 0 0 1-.8-3.64c0-2.6.87-4.66 2.6-6.16 1.76-1.5 4.17-2.24 7.24-2.24 1.5 0 2.94.18 4.3.55.63.16 1.27.36 1.92.58a2.5 2.5 0 0 1 1.43 3.33 2.82 2.82 0 0 1-3.54 1.53c-.48-.16-.93-.3-1.33-.4-1-.25-1.72-.35-2.7-.35-1.16 0-2.06.27-2.68.82a2.75 2.75 0 0 0-.93 2.16c0 .56.12 1.04.37 1.46.26.4.65.8 1.2 1.2.55.37 1.57 1.03 3.63 2.03 2.71 1.32 4.57 2.64 5.58 3.98a7.8 7.8 0 0 1 1.5 4.87Z"/></g><defs><clipPath id="a"><path fill="#fff" d="M.5 0h143v67H.5z"/></clipPath></defs></svg>