<svg xmlns="http://www.w3.org/2000/svg" fill="none" viewBox="0 0 145 101"><g clip-path="url(#a)"><path fill="#FEFEFE" d="M72 101c28.82 0 52.18-22.61 52.18-50.5S100.82 0 72 0 19.82 22.61 19.82 50.5 43.18 101 72 101Z"/><path fill="#009A47" fill-rule="evenodd" d="M51.26 48.48c-.51-2.26-3.2-4.81-3.3-7.13v-.07c-.07-5.43 4.58-6.98 9.01-8.46l.16-.06.16-.05.17-.06.16-.05.16-.06.16-.05.16-.06.16-.05.15-.06c1.64-.57 3.73-1.32 4.81-2.78.16-.22.3-.44.4-.69l.05-.11.05-.12a3 3 0 0 0 .08-.24l.03-.13c.15-.58.03-.87-.1-1.51a14.95 14.95 0 0 1-.08-.43l-.16.06c-4.72 1.58-8.72 1.18-13.2-1.06-1.54-.77-3-1.68-4.43-2.61v-.01l-.05-.03-.11-.07-.04-.03a37.93 37.93 0 0 0-2.98 2.89 38 38 0 0 0-2.95 3.63 37.43 37.43 0 0 0-7.03 22.56c1.97.85 4.17-.22 6.2-1.22 1.4-.69 2.73-1.34 4-1.42.7-.04 1.36.05 2.09.15 1.55.2 3.44.47 6.27-.67Z" clip-rule="evenodd"/><path fill="#FFED00" fill-rule="evenodd" d="m63.25 25 .22-.07c-.26-4.16 2.4-5.12 5.46-6.23 1.36-.5 2.8-1.02 4.04-1.95l.01-.02.1-.07.02-.01.09-.08.01-.01.1-.08.02-.01.08-.07.02-.03.08-.07.02-.02.08-.08.03-.02.06-.06.05-.05.04-.03c.17-.19.34-.38.5-.59l.01-.01.08-.1.01-.02.07-.1.02-.02.07-.1v-.01l.08-.11.01-.02.07-.11v-.01l.08-.12v-.01l.07-.12c.2-.36.38-.74.53-1.16a39.48 39.48 0 0 0-3.27-.26 38.45 38.45 0 0 0-10.7 1.16h-.01a38.62 38.62 0 0 0-4.75 1.53 37.93 37.93 0 0 0-9.9 5.78c3 1.97 5.57 3.33 8.1 3.95 2.64.66 5.29.5 8.4-.59Zm-7.83 49.84a27.32 27.32 0 0 1 8.18-2.75c2.05-.3 4.06-.24 5.73.42a6.1 6.1 0 0 1 3.72 4.18c.18.6.3 1.26.36 1.99l.06-.03c.81-.32 1.57-.66 2.28-1 1.9-.94 2.2-1.93 2.59-3.2.26-.88.57-1.89 1.34-3.08 1-1.53 2.46-2.09 3.88-2.64 1.29-.5 2.55-.98 3.15-2.26.19-.39.41-.82.68-1.32 1.74-3.28 5.13-9.66.47-12.36a49.2 49.2 0 0 0-7.84-3.85 11 11 0 0 0-3.88-.77c-.84 2.81-3.71 3.62-6.53 4.4l-.16.06-.06.01-.1.03h-.01l-.05.02-.06.01-.27.08-.06.02-.05.01-.1.03h-.02l-.04.02-.06.02-.05.01-.05.02h-.01l-.06.02-.04.01c-.74.23-1.44.47-2.04.78l-.1.05-.09.05-.1.05-.08.04-.1.05-.08.05-.1.05-.08.05-.08.04-.09.05-.08.05-.08.05-.08.04-.09.05-.07.05-.08.04-.08.05-.07.05-.08.04-.07.05-.08.04-.07.05-.07.04-.07.05-.07.04-.06.05-.07.04-.07.05-.06.04-.07.04-.06.05c-.7.47-1.24.9-1.71 1.29-1.55 1.23-2.45 1.96-5.05 1.82l-.13-.01h-.01l-.12-.01a23.75 23.75 0 0 1-2.13 7.07 16.16 16.16 0 0 0-.92 2.45 7.32 7.32 0 0 0-.04 3.91c.3 1.07.86 2.1 1.64 3.16Z" clip-rule="evenodd"/><path fill="#E5097F" fill-rule="evenodd" d="m56.07 56.8.27.03c.96.1 1.67.1 2.26 0l.16-.02.29-.07.04-.01.03-.01.15-.05.06-.02.07-.02.07-.03.06-.03h.01l.02-.01.04-.02.06-.02.04-.02.03-.02.03-.01.03-.02.03-.01.04-.02.03-.02.02-.01.04-.03h.02l.04-.03.03-.01.03-.03h.02c.4-.25.78-.55 1.22-.9.6-.48 1.28-1.03 2.22-1.64l.07-.05.08-.05.07-.05.08-.04.08-.05.07-.05.08-.05.08-.05.08-.04.09-.06.08-.04.08-.05.09-.05.09-.05.08-.05.1-.05.09-.05.09-.05.09-.05.1-.06.1-.05.09-.05.1-.05.1-.05.1-.05c.78-.4 1.65-.7 2.56-.96h.01l.33-.1h.01l.05-.02h.01l.17-.05.35-.1.06-.02 1.16-.33.03-.01h.02c2.43-.75 4.6-1.77 4.55-4.66a11.87 11.87 0 0 0-.06-1.14 7.4 7.4 0 0 0-.2-1.09c-2.04-7.73 4.09-9.85 9.02-11.56 2-.7 3.77-1.3 4.49-2.15 1.08-1.27.5-3.2-.1-5.17-.8-2.67-1.62-5.4.84-7.42a38.4 38.4 0 0 0-2.64-1.3 38.39 38.39 0 0 0-9.57-2.81l-.13.38a8.85 8.85 0 0 1-.07.17v.02l-.08.17v.02l-.07.15-.01.03a10.89 10.89 0 0 1-.07.16l-.08.16v.01l-.17.32c-1.58 2.92-4.27 3.9-6.7 4.77-.66.25-1.3.48-1.89.75-1.85.88-3.09 2.18-2.47 5.52.26 1.4.5 2-.3 3.5-1.22 2.32-4.22 3.32-7.33 4.36-3.97 1.33-8.13 2.72-8.08 7.14v.04c.03.63.65 1.66 1.33 2.78.85 1.41 1.79 2.97 2.02 4.5.18 1.16.3 2.22.4 3.16.33 3.15.5 4.75 3 5.07Z" clip-rule="evenodd"/><path fill="#009A47" fill-rule="evenodd" d="m49.4 80.96-.78.66a38.42 38.42 0 0 0 22.08 7.07 38.15 38.15 0 0 0 3.16-.12 65.67 65.67 0 0 0-.5-1.03c-.96-1.98-1.66-3.41-1.37-6.14.18-1.78.07-3.2-.26-4.33a4.78 4.78 0 0 0-2.91-3.29 9.97 9.97 0 0 0-5.02-.34 25.94 25.94 0 0 0-7.93 2.7c-2.01 1.08-4.52 3.18-6.47 4.82Z" clip-rule="evenodd"/><path fill="#00A0E3" fill-rule="evenodd" d="m51.47 49.87.09.7v.06l.04.3v.08l.01.03v.03l.01.07v.06l.01.02.02.16V51.47l.03.17v.05l.01.07.01.12c.1.98.2 1.84.34 2.59l.02.13.03.13.03.12.03.12.03.12.03.12.03.12a5.54 5.54 0 0 0 .07.22l.03.11.04.1a3.42 3.42 0 0 0 .09.21l.04.1c.3.65.73 1.15 1.39 1.5l.1.06.1.05a3.22 3.22 0 0 0 .22.1l.12.04.11.04a6.2 6.2 0 0 0 .95.23c-.1.65-.21 1.32-.37 2.01l-.01.05-.01.04-.02.05v.04l-.02.05v.04l-.02.05-.01.04-.01.05-.01.05-.02.04v.05l-.02.04-.01.05-.01.04-.02.05v.05l-.02.04-.02.06-.01.06-.02.06-.01.05-.02.06-.02.06-.01.06-.02.05-.02.06-.01.06-.02.06-.02.06-.02.05-.02.06-.01.06-.02.06-.02.06-.02.06-.02.06-.02.06-.02.05-.02.06-.02.06-.02.06-.02.06-.02.06-.02.06-.02.06-.02.06-.03.06-.02.06-.02.06-.02.06-.02.06-.03.06-.02.06-.02.06-.03.06-.02.06-.02.06-.03.06-.02.06-.03.06-.02.06-.03.06-.02.06-.03.06-.02.06-.03.06-.02.06-.03.06-.03.07-.02.06-.03.06-.03.06-.03.06-.02.06-.03.06-.03.07-.03.06-.03.06-.03.06-.03.06-.03.06c-.22.47-.42.93-.59 1.39a13.19 13.19 0 0 0-.48 1.55v.05l-.01.02-.02.07v.01l-.01.05v.03l-.01.02-.01.05-.01.04v.04l-.02.07v.04l-.02.04v.06l-.01.02v.02l-.02.06v.08l-.02.07v.03l-.02.08v.08l-.02.07v.09l-.01.06v.01l-.02.13v.02a8.17 8.17 0 0 0 .26 2.93v.02l.01.04.01.02.01.04c.34 1.16.93 2.27 1.74 3.39a39.47 39.47 0 0 0-3.75 2.76l-.18.15-.09.07-.09.07-.08.07-.1.08-.08.07-.09.07-.08.07-.09.08-.09.07-.17.14-.08.07-.08.07-.09.07-.08.07-.08.07-.08.07-.09.07-.16.13-.08.07-.01.01-.01.01h-.01l-.03.03h-.01v.01l-.03.02-.01.02-.03.02-.11.1h-.02l-.02.03h-.01l-.02.02-.07.06-.02.02h-.02l-.03.04h-.01l-.04.04-.03.02-.04.04-.02.01-.02.02-.03.03h-.01l-.1.08-.01.02-.02.01-.02.02-.12.1-.02.02-.05.04-.03.02a38.15 38.15 0 0 1-4.8-4.36 37.47 37.47 0 0 1-8.8-16.16v-.01a39.02 39.02 0 0 1-.27-1.11 37.4 37.4 0 0 1-.85-6.02c2.32.7 4.61-.42 6.75-1.47 1.27-.62 2.48-1.22 3.49-1.28.55-.04 1.14.05 1.8.13 1.66.23 3.67.5 6.67-.63Z" clip-rule="evenodd"/><path fill="#E5097F" fill-rule="evenodd" d="M89.99 52.67c3.28 3.23 1.05 8.47-.73 11.93l-.02.05-.07.13-.02.03-.08.15-.07.14-.02.04-.07.14-.02.03-.08.15v.01l-.09.15v.01l-.08.16-.02.02v.03l-.03.04-.02.03v.02l-.02.02-.01.03-.02.02v.02l-.02.02-.01.03-.01.02-.01.02-.02.02v.02l-.02.03-.06.1v.02l-.02.03v.01h-.01l-.03.07-.01.02-.01.02-.01.02-.01.02-.01.02-.01.02-.01.02-.01.01-.01.02-.03.06-.01.02-.01.02-.01.01-.01.02v.02h-.01v.02l-.02.02v.01l-.01.02-.01.02-.01.02v.01h-.01v.02l-.01.01-.01.02-.01.02v.01h-.01v.02l-.01.01-.01.02V67H88v.02l-.01.01v.02h-.01c-.84 1.79-2.36 2.37-3.9 2.97-1.22.47-2.46.95-3.22 2.1a9.7 9.7 0 0 0-1.18 2.74c-.48 1.58-.86 2.82-3.31 4.02l-.1.05-.04.02-.03.02h-.02l-.02.01-.03.02-.05.02-.1.05-.1.05-.05.02-.05.02-.05.03-.05.02-.09.04-.33.15-.03.02h-.01l-.04.02-1.17.5-.12.04-.43.17c0 .27-.02.56-.04.85l-.01.17v.05l-.01.03v.08l-.01.03v.09l-.01.02v.05l-.01.02-.01.11-.01.11v.1l-.01.11-.01.1v.2l-.01.1v.49l.01.09v.09l.01.1.01.08.01.09.01.09.01.08.01.09.02.08v.09l.02.08.02.08.02.09.01.08.02.08.02.08.02.08.02.08.02.08.02.07.03.08.02.08.03.08.02.07.03.08.03.08.02.07.03.08.03.08.03.07.03.08.03.07.03.08.04.07.03.08.03.08.04.07.03.08.04.08.03.07.04.08.03.08.04.08.04.08.04.08.04.08.03.08.04.08.04.08.04.08.04.08.01.02v.01l.01.02.02.03.04.09.05.1v.01l.02.02.02.04.01.03.01.02.01.02v.01l.03.05v.01l.02.02v.03h.01l.02.04v.02h.01l.01.03.01.02.01.02v.02h.01l.05.1v.02l.02.02.01.03.01.02v.01l.01.01.03.05v.03h.01l.03.06.06.13.02.05v.01l.1.2.03.07.26-.03.76-.1a38.51 38.51 0 0 0 3.9-.78h.01a38.5 38.5 0 0 0 7.48-2.74 37.89 37.89 0 0 0 6.55-4.07 37.66 37.66 0 0 0 14.46-33.82c-1.45-.05-2.65.01-3.79.3-1.27.32-2.49.94-3.9 2.03-2.75 2.11-4.78 2.04-6.63 1.98-1.5-.06-2.87-.1-4.45 1.47Z" clip-rule="evenodd"/><path fill="#00A0E3" fill-rule="evenodd" d="M76.43 46.8c3.29.04 6.77 1.82 9.68 3.42.75.4 1.5.82 2.23 1.24.2.11.38.23.57.35l.1-.1.09-.1.09-.08a5.82 5.82 0 0 1 3.07-1.63l.09-.02h.08l.08-.02h.09l.09-.02h.08l.08-.01h.09l.08-.01h.26l.08-.01H94.14l.08.01h.18l.08.01h.23l.08.01c.45.01.9.01 1.35-.02h.08l.09-.01.08-.01.08-.01.09-.01.08-.02.09-.01a7.08 7.08 0 0 0 2.2-.76c1.06-.58 1.95-1.4 3-2 1.73-1 3.44-1.41 5.39-1.47.42-.02.84-.02 1.26 0a38.03 38.03 0 0 0-.79-3.9 37.9 37.9 0 0 0-1.34-4.19 37.21 37.21 0 0 0-1.77-3.91A37.85 37.85 0 0 0 90.3 18.48a4.68 4.68 0 0 0-.1.07 3.23 3.23 0 0 0-1.27 1.78c-.24.85-.12 1.76.07 2.61.53 2.4 1.9 4.87.98 7.18-1.2 3.02-7.35 4.07-9.53 5.1a19.72 19.72 0 0 0-.4.2c-3 1.53-4.67 3.62-4.18 7.35.17 1.33.52 2.69.55 4.03Z" clip-rule="evenodd"/><path fill="#00A0E3" d="m28.45 28.93.81.49.63-1.05 3.75 2.23.61-1.01-3.74-2.23.63-1.04-.8-.49-1.89 3.1Zm4.61-7.1c4.21 2.06 5.27 2.57 5.33 2.63.15.12.21.29.1.42l-.28.33.7.58c.16-.15.28-.28.43-.46.46-.54.52-.94-.03-1.66l-3.68-4.88-.8.95 2.68 3.12-.01.01-3.58-2.06-.86 1.02Zm8.53-7.3c.24-.2.57-.2.83.12l1.53 1.88c.27.32.2.64-.05.83-.23.19-.59.22-.87-.12l-1.5-1.84c-.28-.34-.18-.68.06-.87Zm-1.93.47 4.46 5.45.93-.75-1.47-1.8c.46.24.9.2 1.25-.08.56-.45.78-1.23.14-2.02l-1.65-2.01c-.68-.83-1.45-.74-2.02-.28a1.07 1.07 0 0 0-.34 1.2l-.37-.46-.93.75Zm11.04-4.25.58 1.14c.22.42.05.75-.28.92-.33.17-.61-.06-.8-.4a.9.9 0 0 1 .02-.86l.48-.8Zm-1.5-.29-.04-.1c-.22-.41-.06-.72.24-.87.33-.17.58-.14.73.15.2.4-.16.84-.57 1.31-.65.76-.83 1.35-.4 2.17.45.88 1.17 1.04 1.87.68.58-.29.71-.64.73-1.1.07.12.2.33.32.4l1.12-.57c-.2-.1-.33-.3-.5-.61L51.2 9c-.43-.85-1.33-.84-2.25-.38-.93.47-1.29 1.39-.9 2.13l.12.24 1.04-.53Zm6.88-4.65 1.46 5.06 1.15-.33-1.2-4.16 1.84-.52-.26-.9-3 .85Zm12.26.51-.1-1.22c-.11-1.18-.92-1.6-1.98-1.5-1.05.09-1.78.63-1.67 1.82l.2 2.2c.1 1.2.9 1.6 1.96 1.51 1.06-.1 1.78-.64 1.68-1.82l-.02-.14-1.19.1.03.3c.03.36-.2.6-.58.63-.39.03-.65-.14-.68-.52l-.1-1.15 2.45-.2Zm-2.53-.65-.04-.5c-.04-.4.19-.6.57-.64.4-.03.65.16.68.52l.05.51-1.26.11Zm9.28-2.04-1.19-.12-.55 5.23 1.19.12.24-2.3 1.15.11-.25 2.31 1.2.13.55-5.24-1.2-.12-.2 2-1.15-.12.21-2Zm7.6 1.28-.26.9 1.18.34-1.2 4.15 1.15.33 1.2-4.16 1.18.34.26-.9-3.5-1Zm10.65 6.19.3-.59c.43-.83-.15-1.63-.84-1.98-.93-.47-1.84-.26-2.24.53l-1.19 2.3c-.4.8-.04 1.65.88 2.12.7.35 1.7.34 2.12-.5l.37-.7-1.07-.54-.34.66c-.14.28-.4.32-.63.2-.26-.12-.38-.37-.2-.7l1.15-2.25c.18-.34.44-.38.7-.25.23.11.35.34.2.63l-.27.53 1.06.54Zm5.27 1.1-.56.76 1 .71-2.57 3.5.97.7 2.56-3.5 1 .71.55-.75-2.95-2.13Zm7.07 7.34.22.24c.3.32.36.63.04.93-.31.29-.63.22-.93-.1l-.23-.24.9-.83Zm-1.5 1.39.27.29c.27.28.33.69-.07 1.06-.43.4-.76.24-1.04-.05l-.27-.29 1.1-1.01Zm-2.57.74 1.39 1.47c.51.55 1.35.85 2.16.1.63-.58.54-1.1.36-1.54.37.17.94.21 1.45-.25.61-.58.38-1.4-.12-1.94l-1.35-1.43-3.88 3.59Zm10.79 5.3c-.74-1.2-1.67-1.19-2.46-.72l-1.84 1.1c-.79.46-1.24 1.27-.51 2.48.72 1.18 1.66 1.18 2.45.71l1.84-1.1c.79-.46 1.23-1.29.51-2.47Zm-.81.48c.2.33.2.6-.22.86l-2.1 1.25c-.43.26-.67.12-.87-.21-.2-.32-.2-.63.21-.87l2.1-1.25c.42-.25.69-.1.88.22ZM34.89 73.1l-1.02 2.86-3.35.08 1.35 1.86 1.68-.26-.8 1.48L34.13 81l1.19-3.07h3.09l-1.35-1.85-1.48.2.68-1.3-1.36-1.88Zm8.07 10.94c.4.35.32 1-.18 1.58-.65.75-1.19.86-1.62.5-.4-.34-.41-.91.23-1.66.39-.45 1.03-.87 1.57-.42Zm-3.24-.84c-1.16 1.36-.76 2.9.53 3.99 1.29 1.08 2.88 1.23 4.13-.23 1.06-1.24.9-2.8-.53-4-1.36-1.14-2.94-1.15-4.13.24Zm10.14 4.18-.68 1.36 1.64.8-1.66 3.33 1.88.92 1.66-3.33 1.63.8.68-1.36-5.15-2.52Zm11.96 4.46-1.97-.42-1.13 5.11 3.1.67c1.53.33 2.4-.12 2.63-1.16.19-.87-.38-1.83-1.88-2.16l-1.15-.24.4-1.8Zm-.65 2.97.65.14c.5.1.74.27.66.66-.1.4-.39.42-.88.31l-.65-.14.22-.97Zm16.93-2.55-2.06.38.98 5.14 2.06-.38-.28-1.45.32-.45 1.45 1.62 2.48-.47-2.77-2.74 1.54-2.35-2.4.45-1.02 1.81-.3-1.57Zm7.92-2c3.71 3.74 3.8 3.85 3.83 3.94.14.3-.04.43-.86.8l.61 1.3c.21-.07.67-.25.86-.34 1.7-.77 1.68-1.33 1.5-3.03l-.52-5.14-1.83.84.52 3.3-2.2-2.54-1.91.88ZM96 84.85l.98 1.17a4.6 4.6 0 0 1 1.2 2.28l-.38.31 1.58 1.88 1.48-1.2-.81-.97 2.2-1.82.82.96 1.47-1.21-1.58-1.88-.45.37-2.6-3.1L96 84.83Zm3.07-.97 1.83 2.18-1.2 1c-.06-.69-.6-1.48-1.15-2.13l-.3-.37.82-.68Zm7.13-6.85c-.34-.3-.16-.65.02-.89.13-.17.44-.51.75-.3.8.59-2.3 2.95-.37 4.36.89.64 1.81.22 2.4-.57.47-.63.7-1.2.6-2l.51.24 1.28-1.73-.08-.06c-.34.09-.47 0-.7-.17l-2-1.45c-1.02-.73-1.85-1.16-3.33.84-1.24 1.67-1.18 2.69-.28 3.34l1.2-1.6Zm1.9-.36c.65.47.94.92.5 1.5-.24.33-.54.43-.75.28-.55-.4.11-1.04.25-1.78Z"/><path fill="#FEFEFE" fill-rule="evenodd" d="m108.94 58.36-.25.35a13.9 13.9 0 0 1-1.7 1.87l-.32.27a8.63 8.63 0 0 1-4.79 1.86h-.48l-.48-.03-.48-.07-.48-.13c-.6-.18-.48.12-.54.65l-.3 2.67c-.06.72-.13 1.4-.6 2.06-.3.43-.73.73-1.36.94-1.18.4-2.75.36-3.92-.13a2.5 2.5 0 0 1-1.66-2.09c-.07-.43-.02-.8.06-1.23l.06-.25.05-.2.33-1.54.04-.18c.18-.8-.07-.52-.65-.38l-.42.07c-2 .25-3.67.07-5.25-1.08l-.4-.35c-.44-.41-.4-.42-.72-.13a5.03 5.03 0 0 1-3.53 1.23c-1.11 0-2.29-.25-3.01-1.14a2.46 2.46 0 0 1-.37-.6c-.21-.51-.21-.24-.81.22l-.47.32-.5.28-.53.25-.57.2-.6.16-.62.1-.65.04-.69-.04a5.3 5.3 0 0 1-4.05-2.5l-.25-.5-.21-.51c-.35-1.13-.14-.95-.8-.02l-.31.4-.32.38-.34.37a9 9 0 0 1-1.9 1.56 5.34 5.34 0 0 1-4.43.71 6.32 6.32 0 0 1-1.13-.46l-.46-.32c-.36-.32-.45-.65-.52-.12l-.05.37a88.65 88.65 0 0 0-.32 3.24l-.03.34-.02.34c-.05.65-.08 1.18-.33 1.8a3.16 3.16 0 0 1-.5.68c-.32.34-.72.56-1.26.74l-.35.08c-.5.08-.98.12-1.46.12-1.4 0-3-.2-3.7-1.6-.38-.77-.31-1.53-.2-2.34l.06-.33c.16-.7.3-1.38.41-2.08.1-.6-.2-.28-.74-.18-2.4.28-5.23-.05-7.02-1.93a5.8 5.8 0 0 1-1.24-2.07c-.2-.85-.08-.67-.55-.1l-.2.24c-.47.51-.95.98-1.47 1.42-2.6 2.2-5.65 3.4-8.84 1.94l-.43-.24-.4-.27-.38-.3-.36-.32c-.57-.59-.37-.64-1.06-.26l-.25.14c-1.96 1.01-4 1.69-6.21 1.87a9.58 9.58 0 0 1-4.78-.93l-.41-.22-.4-.25c-.58-.42-.52-.25-1.2.02a31.99 31.99 0 0 1-2.35.77l-.42.1-.42.11c-2.24.5-4.46.7-6.65-.13l-.43-.2a5.9 5.9 0 0 1-3-3.94l-.06-.33c-.27-1.84.1-3.63.86-5.35 1.03-2.12 2.46-4.06 3.82-6l.16-.22 1.68-2.4.4-.56c.85-1.24.69-1.48-.56-1-1.07.4-2.03 1.18-3.14 1.5l-.58.06-.59-.07-.56-.2-.48-.32-.4-.4-.28-.44-.2-.48-.09-.49v-.5l.08-.5.17-.47.26-.46c.67-.8 1.64-1.4 2.51-2a17.09 17.09 0 0 1 3.67-1.85l.37-.12.38-.11.4-.1.38-.1.42-.08.52-.09c1.2-.13 2.2-.07 3.32.4l.4.22.38.27.34.3.3.32.25.35c1.04 1.81.86 3.76.21 5.66l-.14.36-.15.35-.16.34-.17.33c-.99 1.75.22.7.91-.13l.34-.38.36-.36.37-.35.38-.33a11.4 11.4 0 0 1 2.66-1.57l.5-.18.5-.15.53-.11.54-.08.54-.05h.44c3.02.12 5.02 1.91 5.72 4.79.35 1.85.25 1.28 1.16.16l.15-.18c.41-.48.84-.93 1.3-1.37l.32-.3.34-.3.35-.28.35-.27c2.88-2.03 6.14-3.51 9.44-.05l.34.42.12.18.18-.1.25-.12a26.9 26.9 0 0 1 7.05-2.08l.78-.01a4.48 4.48 0 0 1 4.1 3.92c.05.36.07.71.05 1.1-.05 1.02.21.72.91-.34l.35-.5.37-.48.39-.46.4-.44.44-.43.45-.4.47-.38.5-.35.51-.32.54-.3.57-.25.58-.22.61-.19.63-.14c2.16-.33 3.86-.04 5.4 1.57l.25.29.22.3.2.3a11.3 11.3 0 0 1 1.37 3.84c.16.98.08.86.59.07A17.08 17.08 0 0 1 73.47 43l.3-.24.33-.25.33-.24.34-.24.35-.23c1.72-1.05 3.48-1.77 5.53-1.49l.49.12.48.18.47.23a5.5 5.5 0 0 1 2.28 3.09c.2.63.3 1.28.37 1.95.06.72.09 1.45.07 2.17-.02.65-.05.63.23.02a15.4 15.4 0 0 1 3.57-4.83c.67-.59 1.37-1.08 2.16-1.49a8.9 8.9 0 0 1 2-.75 8 8 0 0 1 1.67-.23c.54.01.92.07 1.44.25.3.11.56.14.65-.33l.65-3.03c.08-.47.2-.79.45-1.2.51-.8 1.28-1.24 2.2-1.5.98-.27 2.06-.26 2.96.26.51.28.85.63 1.14 1.13a2.93 2.93 0 0 1 .27 2.14l-.45 1.75c-.26 1.05.15.53.98.31l.34-.07a6.3 6.3 0 0 1 4.55.66 5.57 5.57 0 0 1 1.67 1.57c.22.36.4.72.56 1.11l.1.3.09.29.02.09.1-.27.13-.33c.18-.42.4-.8.65-1.17l.21-.28a5.84 5.84 0 0 1 1.36-1.15c1.11-.67 2.45-.89 3.73-.12 1.43.87 1.48 2.2 1.04 3.6-.41 1.35-.86 2.62-1.21 4-.23.92-.47 1.86-.62 2.81-.25 1.49.19.92.68.2l.35-.5a15.84 15.84 0 0 0 1.36-2.35c.6-1.32 1-2.67 1.37-4.07.35-1.3.64-2.37 1.7-3.3a3.82 3.82 0 0 1 4.04-.73c.72.33 1.28.95 1.63 1.9.1 1.64-.17 1.33 1.09.43l.33-.22.34-.2a16.45 16.45 0 0 1 8.6-2.32c1.05.02 2.1.2 3.1.59l.53.29.5.36a4.6 4.6 0 0 1 1.38 2.6l.05.58v.57c-.1 1.21-.36 2.42-.55 3.63l-.06.42-.05.41-.06.42a103.8 103.8 0 0 0-.67 7.1l-.03.41-.02.41c-.04.74-.03 1.37-.16 2-.08.38-.21.76-.43 1.16l-.57.53-.57.34-.57.23a5.7 5.7 0 0 1-4.2-.32l-.63-.48a2.83 2.83 0 0 1-.43-.95c-.36-1.42.17-2.85-1.12-1.87l-.32.23c-.76.52-1.53.99-2.33 1.42l-.35.18a20.37 20.37 0 0 1-3.41 1.39 14.57 14.57 0 0 1-1.9.42l-.3.04c-.55.06-1.1.1-1.63.09-1.64-.02-3.37-.4-4.34-1.86a4.28 4.28 0 0 1-.55-1.26c-.19-.93-.15-.7-.79-.05-1.24 1.18-2.96 2.6-4.76 2.89-2.53.4-3.7-1.48-4.11-3.65l-.05-.3c-.13-1.03 0-.95-.6-.04Z" clip-rule="evenodd"/><path fill="#00A0E3" fill-rule="evenodd" d="M94.38 58.88a5.94 5.94 0 0 1-5.01 2.28c-3.88 0-5.16-4.53-3.63-9.78.88-3.03 2.56-5.73 4.79-7.35A6.84 6.84 0 0 1 95 42.62c.96.1 1.65.6 2.22 1.36.41.56.4.42.68-.87l1.02-4.84c.1-.48.13-.82.54-1.15.92-.76 2.87-.77 2.98.5.02.28-.05.52-.12.78L101 43.63c-.26 1.06-.2 1.1.59.48 1.5-1.16 3.45-2.04 5.18-1.97 3.75.17 3.9 6 3.13 9.11-.79 3.23-2.19 7.23-5.13 8.84-1.7.93-4.35 1.2-5.74-.4a5.08 5.08 0 0 1-.54-.73c-.18-.32-.33-.13-.41.37-.33 1.97-.53 4.05-.77 6.08-.07.63.05 1.43-.67 1.67-.8.28-2.23.2-2.9-.18-.6-.34-.31-1.04-.2-1.62.45-2.16.82-3.78 1.3-5.95.2-.88.12-1.1-.46-.45ZM3.92 41.5c1.35-.77 3.18-1.83 4.84-1.35.64.18.95.6 1.06 1.14.32 1.56-.71 2.69-1.53 3.87-1.54 2.23-3.38 4.75-4.75 7.08-1.67 2.85-1.7 6.14.4 7.7 2.82 2.1 8.38.12 11.12-1.15a6.74 6.74 0 0 0 5.53 2.03c2.78-.2 4.92-1.44 7.18-3.04.84 1.88 2.41 3.09 4.4 3.09 2.3 0 4.78-1.4 6.66-3.62 2.28-2.7 3.56-6.48 2.94-9.98 1.23-.93 3.96-1.9 5.04-2.03 3.02-.36 2.8 1.8 1.21 3.6-1.95 2.24-5.05 4.31-5.54 7.4-.42 2.66 1.45 4.08 3.75 4.5a8.4 8.4 0 0 0 4.58-.83c.42-.2 1.4-.48 1.52-.6-.3 1.93-.7 3.85-1.07 5.75-.16.88-.24 1.45.1 1.78.5.48 2.9.52 3.56.12.24-.14.38-.48.39-.77.48-5.55.92-11.8 2.93-17.08 1.06-2.78 2.83-5.37 5.19-5.35 1.09 0 2.03 1.26 2.28 3.24.2 1.54-.03 3.51-.81 5.67-1 2.78-3.28 4.22-5.65 2.65-.68-.45-1.1.66-1.18 1.7-.15 1.82 1 3.73 3.28 3.61.43-.02.9-.17 1.37-.42 4.03-2.15 5.47-7.45 5.25-11.64-.07-1.15-.3-2.63-.84-3.88-1.75-4.02-6.2-2.77-8.73-.24-2.46 2.47-3.96 6.48-5.02 10.26l-.6 2.2c-1.5 1.15-4.46 1.82-5.75-.14-.84-1.27-.14-3.35 1.62-5.2 1.17-1.22 2.65-2.72 3.33-4.44.55-1.37.5-2.73-.12-3.64-1.9-2.78-8.48.5-10.6 1.96a9.4 9.4 0 0 0-.22-.5c-2.17-4.7-6.91-2.77-9.8.12-1.59 1.61-2.99 3.7-3.67 6.02-.51 1.78-.6 3.48-.33 4.95-3.25 1.87-7.47 3.1-9.02.87 3.24-1.5 7.27-4.5 8.11-8.63.7-3.41-.75-6.53-4.23-6.36-4.58.21-7.79 5.32-8.6 9.44-.43 2.15-.39 4.16.4 5.76-3.83 1.8-7.6-.12-7-3.91.56-3.67 3.81-6.58 5.84-10.29 1.44-2.62 1.64-6.27-1.84-6.25-3 .02-5.52 1.8-7.85 3.44-1.02.72-.46 2.15.87 1.39ZM120 54.99c-1.62 1.98-3.15 3.9-5.46 5.15-1.57.85-2.61.56-3.04-1.25-.3-1.28-.3-2.77-.1-4.33.4-3.26 1.37-6.9 2.59-9.97.43-1.08 1.13-2.21 2.82-2.08 1.35.11.85 1.37.58 2.15a44.54 44.54 0 0 0-2.04 8.39c-.22 1.95-.05 3.91 2.13 2.07.74-.63 1.77-1.73 2.5-2.79 1.8-2.57 2.54-4.89 3.3-7.94.38-1.5 1.58-1.94 2.58-1.91.96.03 1.1.87.73 1.86-1.1 4.58-1.9 7-2.1 10.68-.05.97-.05 2.43.63 2.7 1.17.48 3.56-.14 5.6-1.1 1.3-.6 3-1.52 3.7-2.87.14-.27.11-.44-.22-.52-3.3-.7-8.53-2.93-5.32-6.84 1.99-2.42 6.38-4.2 10.01-4.15 3.19.05 4.14 1.41 3.66 4.01-.82 4.48-1.21 9.12-1.41 13.53.15 1.4-4.5 1.76-4.1-.27.83-4.23 1.46-8 2.5-12.34.38-1.64.49-3.11-2.1-2.95-3.3.21-8.58 4.74-2.87 7.46 1.48.7 2.27.63 1.68 2.26-.93 2.62-5.02 5.06-8.2 6.23-1.73.63-6.26 1.37-6.95-.82-.4-1.32-.04-3.4.03-4.8-.13-.9-.58-.24-1.13.44ZM78.58 56.7c-1.24 1.76-3.06 3.83-5.56 3.83-5.62 0-3.76-8.1-2.34-10.97a18.86 18.86 0 0 1 2.45-3.7c1.66-1.96 6.75-5.85 8.98-2.53 1.17 1.73.85 5 .75 7.34-.05 1.28-.1 2.8-.02 4.23.08 1.42.25 2.97.51 4.18.1.44.19.84-.11 1.07-.7.55-2.29.7-3.18.44-.4-.13-.6-.34-.61-.64l-.14-2.89c-.16-1.1-.07-1.3-.73-.36Zm-3.69-.58c2.2.38 5.11-4.03 5.82-6.78 1.72-6.68-2.04-6.32-4.48-3.55-2.81 3.2-4.91 9.71-1.34 10.33Zm-43.73-5.46c-.72 3.2.8 6.03 3.1 6.09 4.1.1 6.97-7.61 4.78-11.03a2.93 2.93 0 0 0-3.22-1.38c-2.65.62-4.12 3.94-4.66 6.32Zm-13.85 4.68c-2-5.34.33-11.14 3.18-11.53 1.8-.25 2.84 2.08 2.6 4.44-.36 3.43-3 5.39-5.78 7.1Zm79.15-3.7c.73-2.97.77-6.49-1.12-7.02-1.3-.36-3.1 1.44-4.38 3.36a13.65 13.65 0 0 0-1.77 5.23c-1.06 8.5 5.73 4.7 7.27-1.57Zm4.43 6.44c-2.47-.27-2.4-4.74-1.48-7.68 1.3-4.18 3.58-5.45 4.97-5.55 1.18-.09 2.22.6 2.5 2.06.65 3.62-2.1 11.58-6 11.17Z" clip-rule="evenodd"/></g><defs><clipPath id="a"><path fill="#fff" d="M.5 0h144v101H.5z"/></clipPath></defs></svg>