<svg xmlns="http://www.w3.org/2000/svg" fill="none" viewBox="0 0 148 43"><g clip-path="url(#a)"><path fill="#077AB0" fill-rule="evenodd" d="M26.98 16.18a8.14 8.14 0 0 1 1.95 4.38l-4.94-.51 2.99-3.87Zm-4.94-2.63a7.96 7.96 0 0 1 4.33 1.98l-3.86 3.08-.47-5.06Zm7.33 7.04a8.65 8.65 0 0 0-2.12-4.79l1.85-2.42-2.39 1.88a8.02 8.02 0 0 0-4.74-2.16l-.77-8.14c8.9.03 16.1 7.39 16.16 16.45l-8-.82ZM24.96 0h17.26v16.49a5 5 0 0 1-4 4.92c-.03-9.6-7.69-17.37-17.13-17.37V3.9A3.91 3.91 0 0 1 24.96 0Z" clip-rule="evenodd"/><path fill="#077AB0" fill-rule="evenodd" d="M15.25 16.18a8.14 8.14 0 0 0-1.95 4.38l4.91-.51-2.96-3.87Zm4.98-2.63c-1.65.2-3.16.89-4.34 1.98l3.83 3.05.5-5.03Zm-7.36 7.04c.2-1.84.94-3.49 2.11-4.79L13 13.24l2.52 2.02a8.46 8.46 0 0 1 4.7-2.16L21 4.96c-8.9.03-16.1 7.39-16.16 16.45l8.03-.82ZM17 0H.13C.07 0 0 .07 0 .14v16.38a5 5 0 0 0 4 4.93A17.3 17.3 0 0 1 21.13 4.07 4.2 4.2 0 0 0 17 0ZM15.3 26.85a8.14 8.14 0 0 1-1.95-4.38l4.94.52-3 3.86Zm4.94 2.6a7.96 7.96 0 0 1-4.34-1.98l3.87-3.04.47 5.02Zm-7.36-7.04a8.65 8.65 0 0 0 2.12 4.79l-1.85 2.42 2.38-1.88a8.02 8.02 0 0 0 4.74 2.16l.77 8.14c-8.9-.03-16.1-7.39-16.16-16.45l8 .82ZM16.19 43H0V26.51a5 5 0 0 1 4-4.92c.03 9.57 7.66 17.3 17.03 17.34A4.96 4.96 0 0 1 16.2 43Zm10.79-16.18a8.14 8.14 0 0 0 1.95-4.38l-4.9.51 2.95 3.87Zm-4.94 2.63a7.73 7.73 0 0 0 4.33-1.98l-3.86-3.04-.47 5.02Zm7.32-7.04a8.41 8.41 0 0 1-2.11 4.79l1.98 2.56-2.52-2.02a8.46 8.46 0 0 1-4.7 2.16l-.78 8.14c8.9-.03 16.1-7.39 16.16-16.45l-8.03.82ZM26.04 43h16.2V26.51a5 5 0 0 0-4-4.92c-.04 9.57-7.67 17.3-17.04 17.34A4.99 4.99 0 0 0 26.04 43Z" clip-rule="evenodd"/><path fill="#0089CA" d="M148 19.23c0 .65-.13 1.3-.47 1.95a5.4 5.4 0 0 1-1.31 1.74 6.7 6.7 0 0 1-2.08 1.27 6.9 6.9 0 0 1-2.72.5 9.71 9.71 0 0 1-1.48-.1 6.97 6.97 0 0 1-1.28-.27 6.51 6.51 0 0 1-1.14-.4l-1.11-.52.84-2.67c.23.17.57.34.97.55a11.64 11.64 0 0 0 4.03 1.13 5.15 5.15 0 0 0 1.89-.34c.27-.1.47-.35.6-.8.13-.4.24-.95.24-1.6 0-.61-.2-1.1-.6-1.47-.41-.34-.88-.68-1.49-.92-.57-.28-1.24-.52-1.91-.8a10.4 10.4 0 0 1-1.92-1.02 5.17 5.17 0 0 1-1.48-1.6c-.4-.65-.6-1.54-.6-2.6 0-.52.13-1.06.4-1.65a5.2 5.2 0 0 1 1.18-1.57 6.16 6.16 0 0 1 1.88-1.2 6.7 6.7 0 0 1 2.55-.48 21.91 21.91 0 0 1 4.24.41l-.54 2.67c-.3-.1-.64-.24-1.04-.34-.4-.1-.78-.2-1.18-.27-.4-.07-.8-.14-1.17-.17-.37-.04-.7-.07-1.01-.07-.34 0-.64 0-.9.03-.28.04-.55.1-.78.28-.2.13-.37.34-.47.68-.1.3-.14.68-.14 1.13 0 .44.1.82.34 1.13.24.3.54.54.9.78.38.24.81.45 1.28.62.47.17.98.38 1.48.62.5.2.98.44 1.48.71.47.28.9.62 1.28 1.03.37.41.67.92.9 1.47.24.62.34 1.33.34 2.16Zm-18.18-2.47-2.52-7.73-2.62 7.73h5.14Zm2.52 7.7-1.98-6.02-6.28.1-2.02 5.92h-2.15l6.62-17.72 3.3-.62 6.14 18.3h-3.63v.04Zm-20.5-8.31.48-.1c.44-.1.87-.25 1.24-.42.4-.17.74-.4 1.01-.71.3-.31.5-.72.67-1.27.17-.51.24-1.16.24-1.98 0-1.2-.27-2.1-.8-2.64a2.83 2.83 0 0 0-2.13-.82c-.2 0-.43 0-.67.03-.23 0-.47.04-.7.07v16.11h-3.4V6.67c.37-.03.74-.07 1.18-.07.4-.03.84-.06 1.31-.06.44-.04.9-.04 1.34-.04h1.31c1.04 0 1.92.1 2.7.34a5.49 5.49 0 0 1 1.87 1c.5.44.88.95 1.11 1.6a5.96 5.96 0 0 1 .37 2.12c0 .82-.13 1.61-.4 2.33a5.07 5.07 0 0 1-1.25 1.92c-.53.54-1.27.95-2.11 1.26-.88.3-1.88.48-3.06.48h-.13l-.17-1.4Zm-10.78 8.31-1.34-13.65-6.01 13.65h-1.05l-6.28-13.65-1.14 13.65h-1.95l1.71-18h3.2l5.84 12.66 5.58-12.65h3.09l1.85 17.99h-3.5Zm-24.19-9c0-1.1-.1-2.05-.27-2.9-.2-.86-.47-1.61-.87-2.2A3.88 3.88 0 0 0 74.22 9a4.8 4.8 0 0 0-2.19-.48c-.74 0-1.4.07-2.05.24-.63.17-1.14.37-1.5.68-.38.31-.65.96-.81 1.95-.17 1-.27 2.36-.27 4.07 0 1.06.06 2.05.23 2.91.17.86.4 1.6.78 2.26.37.61.84 1.13 1.4 1.47.61.34 1.32.51 2.2.51.9 0 1.64-.1 2.2-.24a4.57 4.57 0 0 0 1.49-.68c.2-.14.37-.38.5-.79.13-.37.27-.85.37-1.43.1-.55.17-1.2.2-1.89.07-.68.1-1.36.1-2.12Zm3.56 0c0 1.4-.16 2.67-.5 3.83a7.55 7.55 0 0 1-1.58 2.91 6.46 6.46 0 0 1-2.65 1.85 9.35 9.35 0 0 1-3.67.65 9.3 9.3 0 0 1-3.7-.65 6.16 6.16 0 0 1-2.51-1.88 8.1 8.1 0 0 1-1.45-2.91c-.3-1.13-.47-2.4-.47-3.8s.17-2.67.47-3.76c.3-1.13.81-2.09 1.48-2.87A6.37 6.37 0 0 1 68.41 7a9.93 9.93 0 0 1 3.66-.61c1.41 0 2.62.2 3.7.61a6.85 6.85 0 0 1 2.61 1.82c.71.78 1.21 1.74 1.58 2.87.3 1.13.47 2.36.47 3.76Zm-19.01-7.7c-.3 0-.6.04-.88.14a2.84 2.84 0 0 0-.87.41c-.3.17-.6.41-.9.72-.34.31-.68.65-1.08 1.06-.4.45-.88.96-1.31 1.5-.47.56-.98 1.14-1.51 1.79a135.76 135.76 0 0 0 2.01 3.96c.64 1.2 1.28 2.26 1.88 3.12.6.89 1.25 1.54 1.85 2.05.6.48 1.24.72 1.92.72h.2v1.16c-.37.1-.74.17-1.11.24-.37.07-.84.07-1.35.07a4.65 4.65 0 0 1-3.9-1.88 14.31 14.31 0 0 1-1.7-2.7 60.7 60.7 0 0 1-2.02-4.18c-.1.1-.2.24-.3.38-.14.14-.24.3-.37.44-.14.17-.27.31-.37.45-.1.13-.2.27-.27.34v6.91h-3.4V6.6h3.4v8.38c.33-.4.74-.89 1.17-1.5.47-.58.94-1.2 1.45-1.81l1.41-1.78c.44-.55.84-1 1.14-1.34.4-.44.74-.78 1.08-1.06.3-.27.64-.48.94-.61.3-.14.64-.2.97-.28.34-.03.7-.06 1.15-.06a4 4 0 0 1 1.1.13v1.1h-.33Zm86.44 22.9a.96.96 0 0 0-.3-.08c-.1-.03-.2-.03-.3-.03h-.17c-.06 0-.1.03-.17.07l-.13.1-.17.17v3.04h-1.14V29.7h1.08l.1.69a.75.75 0 0 0 .1-.17c.03-.07.1-.14.13-.2.07-.08.1-.15.17-.18.07-.07.1-.1.17-.1a1.19 1.19 0 0 1 .33-.07h.44l-.14 1Zm-6.38 1.15c0 .55.07.96.2 1.24.14.27.34.37.67.37.14 0 .24 0 .34-.03l.27-.1c.03-.04.07-.07.13-.18.04-.1.07-.2.1-.34.04-.14.04-.27.07-.44v-.55c0-.55-.06-.96-.2-1.23-.13-.28-.34-.41-.64-.41-.1 0-.23 0-.33.03l-.27.1-.14.18a1.02 1.02 0 0 0-.06.34c-.04.13-.04.27-.04.44-.1.24-.1.41-.1.58Zm.84 2.23c-.67 0-1.2-.17-1.54-.55-.37-.38-.54-.92-.54-1.64 0-.34.03-.65.13-.93.1-.27.24-.5.4-.68.17-.2.4-.34.68-.44.27-.1.57-.18.9-.18.71 0 1.21.21 1.58.59.37.37.54.92.54 1.64 0 .34-.03.65-.13.92a1.93 1.93 0 0 1-.4.69c-.17.2-.4.34-.68.44a2.85 2.85 0 0 1-.94.14Zm-5.07-3.77-.44-.13v-.24l1.28-.92h.33v.75h1.28l-.07.48c-.1.03-.2.03-.33.03-.14 0-.27.04-.4.04-.14 0-.3.03-.48.03v2.4c0 .13.04.27.07.37a.37.37 0 0 0 .34.17h.16c.07 0 .17 0 .24-.03.07 0 .17-.04.24-.04.06 0 .13-.03.2-.03v.34a2.91 2.91 0 0 1-.34.2c-.13.07-.27.14-.4.18-.14.07-.3.1-.44.13-.13.04-.3.04-.43.04-.1 0-.2 0-.3-.04-.1-.03-.21-.06-.28-.13a1.53 1.53 0 0 1-.2-.24 1.31 1.31 0 0 1-.07-.41v-2.94h.04Zm-2.59 2.88v-1.3c-.3 0-.5 0-.64.07-.13.03-.23.06-.27.13-.03.04-.03.07-.03.1 0 .07-.03.1-.03.18v.37c0 .2.03.35.06.48.07.14.14.17.27.17.14 0 .24 0 .37-.03.04-.1.17-.14.27-.17Zm1.48.17c.1 0 .24-.04.4-.07v.27c-.06.07-.13.1-.23.17a.97.97 0 0 1-.27.14l-.3.1c-.1.04-.2.04-.3.04-.1 0-.2 0-.28-.04a.69.69 0 0 1-.2-.13c-.06-.04-.1-.1-.13-.17-.04-.07-.07-.14-.1-.17l-.3.2c-.1.07-.2.14-.3.17a.99.99 0 0 1-.34.14 1.49 1.49 0 0 1-.4.03 1 1 0 0 1-.78-.3c-.2-.2-.27-.52-.27-.93 0-.2.04-.4.1-.58.07-.17.14-.3.27-.4.14-.11.27-.22.47-.25a2.2 2.2 0 0 1 .7-.1h.71v-.62c0-.17-.03-.3-.13-.37a.74.74 0 0 0-.44-.14c-.13 0-.33.03-.5.07a3.99 3.99 0 0 0-.6.17l-.17-.45c.13-.07.3-.13.43-.17l.47-.17c.17-.03.34-.1.47-.1.17-.04.34-.04.47-.04.2 0 .34 0 .5.07.14.04.28.1.38.17.1.07.17.21.23.35.07.13.07.3.07.51v1.95c.03.44.13.65.37.65Zm-4.37-2.67c-.1-.03-.2-.07-.3-.07-.1-.03-.2-.03-.3-.03H131c-.07 0-.1.03-.17.07l-.13.1-.17.17v3.04h-1.18V29.7h1.08l.1.69a.75.75 0 0 0 .1-.17c.03-.07.1-.14.13-.2.07-.08.1-.15.17-.18.07-.07.1-.1.17-.1.1-.04.24-.07.34-.07h.43l-.1 1Zm-5.78-.3a.37.37 0 0 0-.1.16.65.65 0 0 0-.06.28c-.04.1-.04.2-.07.3 0 .1-.04.21-.04.35l1.31-.07c0-.14-.03-.24-.06-.38a1.62 1.62 0 0 0-.14-.37c-.06-.1-.1-.2-.2-.28a.38.38 0 0 0-.27-.1c-.06 0-.13 0-.2.03-.03 0-.1.04-.17.07Zm.57-.73c.2 0 .4.04.58.1.2.08.37.14.5.28.17.14.3.3.4.55.1.24.2.51.27.85v.07l-.13.14a1.66 1.66 0 0 1-.24.1 1.2 1.2 0 0 1-.37.07c-.13.03-.3.03-.54.07l-1.3.1v.17c0 .34.1.62.26.82.17.2.44.31.78.31.13 0 .3 0 .43-.03l.44-.1c.13-.04.27-.07.37-.14a2.17 2.17 0 0 0 .27-.1l.1.3a4.82 4.82 0 0 1-.44.31c-.17.1-.33.2-.5.27l-.57.2c-.2.08-.4.08-.6.08a2.5 2.5 0 0 1-.71-.1 1.18 1.18 0 0 1-.54-.38 1.71 1.71 0 0 1-.37-.65 3.58 3.58 0 0 1 .03-2.05c.1-.31.24-.55.44-.72.17-.17.4-.31.64-.41.23-.07.5-.1.8-.1Zm-4.03 2.13c0-.48-.06-.83-.23-1.06a.67.67 0 0 0-.6-.35c-.14 0-.28 0-.38.04l-.37.1v2.77c.1.03.17.03.27.03h.27c.14 0 .3 0 .44-.03.13-.03.23-.07.3-.14a2.76 2.76 0 0 0 .3-1.37Zm-1.58-1.68c.17-.14.34-.24.5-.3.18-.11.41-.15.65-.15.2 0 .43.04.63.1.2.08.37.21.54.38.17.17.27.38.37.65a3.06 3.06 0 0 1-.03 1.95c-.1.28-.24.55-.44.72a1.77 1.77 0 0 1-.67.45 2.52 2.52 0 0 1-.9.17c-.11 0-.24 0-.34-.04-.14 0-.2-.03-.3-.07v2.7l-1.18.21v-7.01l1.04-.17.13.41Zm-5.17 1.74c0 .55.07.96.2 1.24.14.27.34.37.67.37.14 0 .24 0 .34-.03l.27-.1a.92.92 0 0 0 .13-.18c.04-.1.07-.2.1-.34.04-.14.04-.27.07-.44v-.55c0-.55-.07-.96-.2-1.23-.14-.28-.34-.41-.64-.41-.1 0-.23 0-.34.03l-.26.1-.14.18a1 1 0 0 0-.07.34c-.03.13-.03.27-.03.44-.1.24-.1.41-.1.58Zm.87 2.23c-.67 0-1.2-.17-1.54-.55-.37-.38-.54-.92-.54-1.64 0-.34.03-.65.13-.93.1-.27.24-.5.4-.68.18-.2.41-.34.68-.44.27-.1.57-.18.9-.18.71 0 1.22.21 1.59.59.36.37.53.92.53 1.64 0 .34-.03.65-.13.92-.1.28-.24.51-.4.69-.17.2-.4.34-.68.44a2.85 2.85 0 0 1-.94.14Zm-2.69-3.39a.96.96 0 0 0-.3-.07c-.1-.03-.2-.03-.3-.03h-.17c-.06 0-.1.03-.17.07l-.13.1-.17.17v3.04h-1.17V29.7h1.07l.1.69c.04-.04.07-.1.1-.17l.14-.2c.06-.08.1-.15.17-.18.06-.07.1-.1.16-.1.1-.04.24-.07.34-.07h.44l-.1 1Zm-6.41-.96v2.84c0 .24.03.45.13.55.07.14.2.17.4.17.07 0 .14 0 .24-.03.07-.04.17-.04.27-.07a1.6 1.6 0 0 0 .23-.1l.24-.14v-3.22h1.18v4.24h-1.08l-.1-.47c-.07.06-.17.1-.3.17a3.63 3.63 0 0 1-.37.2c-.14.07-.27.1-.44.17a1.92 1.92 0 0 1-.44.07 1.67 1.67 0 0 1-.43-.07 1.38 1.38 0 0 1-.37-.24c-.1-.1-.17-.24-.24-.37a1.45 1.45 0 0 1-.1-.55v-3.08h1.18v-.07Zm-5.14 2.12c0 .55.06.96.2 1.24.13.27.33.37.67.37.14 0 .24 0 .34-.03l.27-.1a.92.92 0 0 0 .13-.18c.03-.1.07-.2.1-.34s.03-.27.07-.44v-.55c0-.55-.07-.96-.2-1.23-.14-.28-.34-.41-.64-.41-.1 0-.24 0-.34.03l-.27.1-.13.18a1.02 1.02 0 0 0-.07.34c-.03.13-.03.27-.03.44-.1.24-.1.41-.1.58Zm.84 2.23c-.68 0-1.21-.17-1.55-.55-.37-.38-.54-.92-.54-1.64 0-.34.04-.65.14-.93s.23-.5.4-.68c.17-.2.4-.34.67-.44.27-.1.57-.18.91-.18.7 0 1.21.21 1.58.59.37.37.54.92.54 1.64 0 .34-.04.65-.14.92-.1.28-.23.51-.4.69-.17.2-.4.34-.67.44-.27.1-.57.14-.94.14Zm-5.58-.07v-5.71l-1.81-.04.06-.65h4.8l-.06.62-1.78.03v5.68h-1.21v.07Z"/></g><defs><clipPath id="a"><path fill="#fff" d="M0 0h148v43H0z"/></clipPath></defs></svg>