<svg xmlns="http://www.w3.org/2000/svg" fill="none" viewBox="0 0 150 33"><g clip-path="url(#a)"><path fill="#5DA729" fill-rule="evenodd" d="M149.06 28.21h-1.38l-1.15 1.6v-1.6h-1.17v4h1.17v-1.64l1.1 1.63h1.47l-1.57-2.06 1.53-1.93Zm-9.83 0h1.18v4h-1.18v-4Zm-7.58.96h.89v3.03h1.17v-3.03h.88v-.96h-2.94v.96Zm-5.16.66a1.33 1.33 0 0 0-.28-.1.88.88 0 0 0-.23-.06.26.26 0 0 0-.1-.02l-.1-.03a.51.51 0 0 1-.19-.1.27.27 0 0 1-.08-.2v-.07l.03-.08a.37.37 0 0 1 .35-.2.84.84 0 0 1 .3.09l.29.17.06.05a.32.32 0 0 0 .05.05h.05l.4-.84v-.01l-.03-.02a1.77 1.77 0 0 0-.7-.3 2.42 2.42 0 0 0-.48-.07h-.06c-.46 0-.8.12-1.04.35a1.16 1.16 0 0 0-.36.86c0 .33.07.57.21.74.16.16.32.28.5.36a2.1 2.1 0 0 0 .41.14h.02a1.7 1.7 0 0 1 .41.16c.12.06.16.17.16.32v.07a.28.28 0 0 1-.03.08.26.26 0 0 1-.1.12c-.05.05-.13.07-.23.07h-.05l-.04-.01a1.1 1.1 0 0 1-.4-.16 2.27 2.27 0 0 1-.36-.26l-.05-.05a.53.53 0 0 1-.06-.05h-.06l-.52.85c.18.14.33.26.47.34a2.21 2.21 0 0 0 .72.27l.3.03h.05c.4 0 .76-.1 1.05-.32.31-.2.46-.54.46-1-.01-.35-.08-.6-.23-.77a1.56 1.56 0 0 0-.51-.4Zm-8.13-1.62h1.17v4h-1.17v-4Z" clip-rule="evenodd"/><path fill="#5DA729" d="M112.67 30.6c0-.02.02-.02.02-.02a1.4 1.4 0 0 0 .54-.38c.17-.18.25-.45.25-.8 0-.32-.07-.56-.22-.72a1.28 1.28 0 0 0-.9-.46 3.08 3.08 0 0 0-.26-.01h-1.72v4h1.18v-1.23l.8 1.23h1.4l-1.12-1.6.03-.01Zm-.36-1.08v.07a.6.6 0 0 1-.13.28c-.08.1-.21.13-.4.13h-.22v-.92h.22c.19 0 .32.05.4.13a.5.5 0 0 1 .13.28v.03Z"/><path fill="#5DA729" fill-rule="evenodd" d="m104.3 30.56-.01.17a3.03 3.03 0 0 1-.03.19.89.89 0 0 1-.18.3c-.1.1-.21.14-.4.14-.18 0-.3-.05-.39-.15a.84.84 0 0 1-.2-.49c-.02-.06-.02-.11-.02-.16v-2.35h-1.17v2.38c0 .6.16 1.04.5 1.31.32.28.74.42 1.26.42h.05c.53 0 .95-.15 1.27-.42.33-.28.5-.72.5-1.31V28.2h-1.19v2.35Z" clip-rule="evenodd"/><path fill="#5DA729" d="M95.02 28.1h-.07c-.7 0-1.25.21-1.6.63a2.19 2.19 0 0 0-.54 1.47 2.02 2.02 0 0 0 2.14 2.11h.06c.73 0 1.26-.22 1.61-.63.36-.4.55-.93.54-1.48a2.26 2.26 0 0 0-.54-1.47c-.36-.42-.9-.64-1.6-.64Zm.7 2.89a.93.93 0 0 1-.5.33.89.89 0 0 1-.12.03h-.26l-.12-.04a1.06 1.06 0 0 1-.48-.34c-.15-.17-.22-.43-.22-.77s.07-.6.22-.76a1.06 1.06 0 0 1 .61-.38l.13-.01.12.01.13.03c.18.06.35.17.5.34.15.17.23.43.23.77-.01.36-.1.62-.24.79Z"/><path fill="#5DA729" fill-rule="evenodd" d="M85.42 29.17h.87v3.03h1.18v-3.03h.88v-.96h-2.93v.96ZM55.25 22.9c.5-.14 1.07.15 1.5.36a5.55 5.55 0 0 1 0-4H0v5.87h53.96c0-1.01.07-1.8 1.29-2.23Z" clip-rule="evenodd"/><path fill="#0061A3" fill-rule="evenodd" d="M55.81 29.21a4.6 4.6 0 0 1-1.85-2.72H0v5.73h62.25l-.57-1.15c-3.22-.5-4.36-.64-5.87-1.86Zm1.51-12.17a21 21 0 0 1-5.36-5H0v5.87h57.1l.22-.86ZM48.3 4.82H0v5.8h51.03a20.62 20.62 0 0 1-2.73-5.8Z" clip-rule="evenodd"/><path fill="#0061A3" d="M77.63 11.1c-.57-.14-1.15-.14-1.64-.14-.5.5-.94.93-1.36 1.5h-.3c0-.72.08-1.14.15-1.79-.21-.93-.79-.93-1.43-1.57-.22-1.43-1.86-1.79-1.64-3.36.14-.72 1-.08 1.57-.5.78-.3 1.43 1.14 2.07 0 .07-.08-.14-.3-.14-.5l.43-.15c.5-2.15-2.14-1.36-3.15-2.36.15-.86-.7-.64-1.14-1.07-.22 0-.07-.36-.36-.36-.43.14-1 .14-1.21.86-.07-.43-.5-.58-.71-.65-.07.36.35.65.14 1.15-1 .07-1.58.86-1.94 1.57l-.07-.07c-.14.86-1 1.43-1 2.37.22.35.5-.29.86-.07-.43.2-.64.5-.86.85-.14.44-.14.79 0 1.15.43-.15.86-.72 1.22-.86-.15.72-.58 1.07-1 1.65l-.07 1.07a5 5 0 0 1-1.29-1.22c-.5-.29-.72-.93-1.15-1.5-1.93-2.37-4.8-.58-7-.8-2.8-.5-5.45-1.42-7.44-3.57 0 .72.21 1.29.57 2 .29 1 1.07 1.8 1.93 2.37-.64.14-1.08-.36-1.57-.58v.14a6.85 6.85 0 0 0 1.57 2.44c.64.86 1.78.57 2.5 1.07-.29.36-.86.22-1.36.22.5 1 1.5 1.79 2.5 1.79.3.07.65-.29.72.14-.07.5-.71.43-1.07.43a6.1 6.1 0 0 0 1.71 1.86c1.72.07 2.93 2.07 4.65 1 .79.79 1.64-.36 2.5-.28 0 .14-.21.28-.21.36-1.08.36-2.14.85-2.43 2 0 .93-.93.36-1.36.5-1.08.07-1.58 1.15-1.93 2.15-.5 1.72 1 3.22-.36 4.43-.43.22-.86 0-1.22-.28.07.5.21.86.57 1.07.43.15 1.08-.07 1.28-.36 0 .29-.2.43-.36.72-.78.36-1.42-.36-2-.64 0 .64.44.85.64 1.29.29.36-.43.21-.43.36 1.08 1.07 2.5 2.07 4 1.64.65-.14 1.08-.93 1.44-1.5.14-1.43.14-3-.64-4.22-.58-.72-.58-1.72-.8-2.51.22-.43.58-.93 1.08-1 .21.71.5 1.36 1 1.86.36 1.07 1.72 1.5 1.57 2.64-.5 1.15-1.56 2.15-1.42 3.37.86 1 1.57 2.29 1.78 3.72.64 0 .43.85.64 1.14.58.22 1.22 0 1.73 0-.3-1.14-1.22-1.64-1.73-2.57-.07-.22-.2-.65 0-.79.44.21 1 .57 1 1.22.58-.07.44.78.58 1.14.29.29.64.86 1.07.64.15-.21.08-.28.08-.42.36-1.15-.64-1.58-.8-2.37-.7-.71-1.57-.85-2.13-1.78-.36-.43.2-.65.57-1.08 1.57-1.22 2.07-3.36 2.07-5.22.86-1.43 2.79-1.72 3.94-3.15.85-.79 1.35-1.86 1.93-2.72l.2.21c1.08.07 1.94-1.29 2.8-1.93.14.21.36.43.58.79.2.36-.08.93.2 1.21.22.36-.13.65-.2.93.28.57.63 1.29 1.2 1.5.23-.78.08-1.5.16-2.28v-.22c.14-1.07-1-1.64-.94-2.72.86-.85 1.94.08 2.79.29.22.14.15.5.15.71.78 0 1.42-.35 2-1-.22-.14-.5-.28-.71-.43-1.07-.92-2.43-.07-3.57-.92Zm-20.6 3.08c.43-.07.71-.64 1.07-.36-.2.3-.64.3-1.07.36Zm9.51-3.93c.58.14 1.22.5 1.87.57-.65 0-1.51-.22-1.87-.57Z"/><path fill="#0061A3" fill-rule="evenodd" d="M124.49 13.07h-7.5v4.8h2.66c.02 1.4-.85 2.5-2.06 2.5-1.74 0-2.76-2.3-2.76-5.1 0-2.52.75-5.11 2.78-5.11a2 2 0 0 1 1.94 1.49l4.35-1.34c-.75-3.4-2.93-6.2-6.46-6.2-5.35 0-7.45 5.63-7.45 11.2 0 6.3 2.8 10.9 7.5 10.9 4.57 0 6.99-4.44 6.99-10.63v-2.5ZM150 18.7c0-3.51-1.35-5.06-3.07-5.95-1.42-.75-2.42-.75-2.42-2 0-1.16.92-1.22 1.43-1.22.9 0 2.15.33 2.97.66V4.94a9.27 9.27 0 0 0-3.9-.83c-3.16 0-5.32 2.71-5.32 7.27 0 4.55 2.6 5.5 3.75 6.01.82.39 1.72.74 1.72 1.88 0 .62-.27 1.34-1.42 1.34-1.14 0-2.83-.8-3.8-1.37v5.75a8.84 8.84 0 0 0 4.38 1.22c3.97 0 5.68-3.64 5.68-7.5Z" clip-rule="evenodd"/><path fill="#0061A3" d="M134.5 25.58h5.2l-4.5-20.85h-5.58l-4.53 20.85h5.2l.51-3.04H134l.51 3.04Zm-2.98-8.25.87-5.3.88 5.3h-1.75ZM97.1 11.9c0-2.95-1.04-7.18-5.54-7.18H85.4v20.85h5.09v-6.46h1.06c4.48 0 5.54-4.23 5.54-7.2Zm-6.04 1.79h-.56v-3.54h.56c.46 0 1.2.11 1.2 1.75s-.7 1.79-1.2 1.79Z"/><path fill="#0061A3" fill-rule="evenodd" d="M99.3 25.58h8.9v-6.05h-3.81v-1.99h3.43v-5h-3.43v-1.76h3.82V4.74h-8.9v20.84Z" clip-rule="evenodd"/></g><defs><clipPath id="a"><path fill="#fff" d="M0 .5h150v32H0z"/></clipPath></defs></svg>